<svg width="22" height="22" viewBox="0 0 22 22" fill="none" xmlns="http://www.w3.org/2000/svg">
<path fill-rule="evenodd" clip-rule="evenodd" d="M8 2.95659C8 2.5742 7.89269 2.21687 7.70653 1.91309H14.2935C14.1073 2.21687 14 2.5742 14 2.95658V4.69572C14 5.80029 14.8954 6.69572 16 6.69572C17.1046 6.69572 18 5.80029 18 4.69572V2.95659C18 2.5742 17.8927 2.21687 17.7065 1.91309H19C20.6569 1.91309 22 3.25623 22 4.91309V8.60874H21.9991C21.9997 8.62314 22 8.63762 22 8.65217V21C22 21.5523 21.5523 22 21 22H20.0001L20 21.9999L19.9999 21.9998H2.00008L2 21.9999L1.99992 22H1C0.447715 22 0 21.5523 0 21V8.65217C0 8.63762 0.000310874 8.62314 0.000926345 8.60874H0V4.91309C0 3.25623 1.34315 1.91309 3 1.91309H4.29347C4.10731 2.21687 4 2.5742 4 2.95658V4.69572C4 5.80029 4.89543 6.69572 6 6.69572C7.10457 6.69572 8 5.80029 8 4.69572V2.95659ZM20.0009 8.60874L1.99907 8.60874C1.99969 8.62314 2 8.63762 2 8.65217V19.0868C2 19.6391 2.44772 20.0868 3 20.0868H19C19.5523 20.0868 20 19.6391 20 19.0868V8.65217C20 8.63762 20.0003 8.62314 20.0009 8.60874ZM15.2082 12.0098L11.7537 16.4156C10.8143 17.6137 9.0463 17.74 7.94609 16.6876L6.78332 15.5754C6.35645 15.1671 6.35645 14.4852 6.78332 14.0769C7.18418 13.6934 7.81582 13.6934 8.21668 14.0769L8.42871 14.2797C9.00257 14.8286 9.92474 14.7627 10.4147 14.1378L13.273 10.4924C13.6794 9.9741 14.4221 9.8681 14.9574 10.2521C15.5259 10.6599 15.6399 11.4593 15.2082 12.0098Z" fill="#0583D2"/>
<rect x="5" width="2" height="5.73913" rx="1" fill="#0583D2"/>
<rect x="15" width="2" height="5.73913" rx="1" fill="#0583D2"/>
</svg>
